{
	"patcher" : 	{
		"fileversion" : 1,
		"rect" : [ 287.0, 163.0, 1344.0, 957.0 ],
		"bglocked" : 0,
		"defrect" : [ 287.0, 163.0, 1344.0, 957.0 ],
		"openrect" : [ 0.0, 0.0, 0.0, 0.0 ],
		"openinpresentation" : 0,
		"default_fontsize" : 12.0,
		"default_fontface" : 0,
		"default_fontname" : "Arial",
		"gridonopen" : 0,
		"gridsize" : [ 20.0, 20.0 ],
		"gridsnaponopen" : 0,
		"toolbarvisible" : 1,
		"boxanimatetime" : 200,
		"imprint" : 0,
		"metadata" : [  ],
		"boxes" : [ 			{
				"box" : 				{
					"maxclass" : "newobj",
					"text" : "transport",
					"outlettype" : [ "int", "int", "float", "float", "float", "", "int", "float" ],
					"id" : "obj-9",
					"fontsize" : 12.0,
					"patching_rect" : [ 640.0, 760.0, 113.5, 20.0 ],
					"numinlets" : 2,
					"numoutlets" : 8,
					"fontname" : "Arial"
				}

			}
, 			{
				"box" : 				{
					"maxclass" : "message",
					"text" : "10",
					"outlettype" : [ "" ],
					"id" : "obj-22",
					"fontsize" : 12.0,
					"patching_rect" : [ 580.0, 180.0, 32.5, 18.0 ],
					"numinlets" : 2,
					"numoutlets" : 1,
					"fontname" : "Arial"
				}

			}
, 			{
				"box" : 				{
					"maxclass" : "message",
					"text" : "100",
					"outlettype" : [ "" ],
					"id" : "obj-21",
					"fontsize" : 12.0,
					"patching_rect" : [ 580.0, 220.0, 32.5, 18.0 ],
					"numinlets" : 2,
					"numoutlets" : 1,
					"fontname" : "Arial"
				}

			}
, 			{
				"box" : 				{
					"maxclass" : "message",
					"text" : "4000",
					"outlettype" : [ "" ],
					"id" : "obj-20",
					"fontsize" : 12.0,
					"patching_rect" : [ 580.0, 340.0, 37.0, 18.0 ],
					"numinlets" : 2,
					"numoutlets" : 1,
					"fontname" : "Arial"
				}

			}
, 			{
				"box" : 				{
					"maxclass" : "message",
					"text" : "1000",
					"outlettype" : [ "" ],
					"id" : "obj-18",
					"fontsize" : 12.0,
					"patching_rect" : [ 580.0, 300.0, 37.0, 18.0 ],
					"numinlets" : 2,
					"numoutlets" : 1,
					"fontname" : "Arial"
				}

			}
, 			{
				"box" : 				{
					"maxclass" : "message",
					"text" : "500",
					"outlettype" : [ "" ],
					"id" : "obj-17",
					"fontsize" : 12.0,
					"patching_rect" : [ 580.0, 260.0, 32.5, 18.0 ],
					"numinlets" : 2,
					"numoutlets" : 1,
					"fontname" : "Arial"
				}

			}
, 			{
				"box" : 				{
					"maxclass" : "message",
					"text" : "4nd",
					"outlettype" : [ "" ],
					"id" : "obj-14",
					"fontsize" : 12.0,
					"patching_rect" : [ 1001.0, 403.0, 32.5, 18.0 ],
					"numinlets" : 2,
					"numoutlets" : 1,
					"fontname" : "Arial"
				}

			}
, 			{
				"box" : 				{
					"maxclass" : "message",
					"text" : "4n",
					"outlettype" : [ "" ],
					"id" : "obj-13",
					"fontsize" : 12.0,
					"patching_rect" : [ 880.0, 380.0, 32.5, 18.0 ],
					"numinlets" : 2,
					"numoutlets" : 1,
					"fontname" : "Arial"
				}

			}
, 			{
				"box" : 				{
					"maxclass" : "message",
					"text" : "16n",
					"outlettype" : [ "" ],
					"id" : "obj-11",
					"fontsize" : 12.0,
					"patching_rect" : [ 740.0, 380.0, 32.5, 18.0 ],
					"numinlets" : 2,
					"numoutlets" : 1,
					"fontname" : "Arial"
				}

			}
, 			{
				"box" : 				{
					"maxclass" : "newobj",
					"text" : "float",
					"outlettype" : [ "float" ],
					"id" : "obj-8",
					"fontsize" : 12.0,
					"patching_rect" : [ 360.0, 720.0, 33.0, 20.0 ],
					"numinlets" : 2,
					"numoutlets" : 1,
					"fontname" : "Arial"
				}

			}
, 			{
				"box" : 				{
					"maxclass" : "flonum",
					"outlettype" : [ "float", "bang" ],
					"id" : "obj-7",
					"fontsize" : 12.0,
					"patching_rect" : [ 60.0, 720.0, 50.0, 20.0 ],
					"numinlets" : 1,
					"numoutlets" : 2,
					"fontname" : "Arial"
				}

			}
, 			{
				"box" : 				{
					"maxclass" : "toggle",
					"outlettype" : [ "int" ],
					"id" : "obj-5",
					"patching_rect" : [ 440.0, 240.0, 20.0, 20.0 ],
					"numinlets" : 1,
					"numoutlets" : 1
				}

			}
, 			{
				"box" : 				{
					"maxclass" : "newobj",
					"text" : "scale 0. 127. 0. 1.",
					"outlettype" : [ "float" ],
					"id" : "obj-3",
					"fontsize" : 12.0,
					"patching_rect" : [ 340.0, 420.0, 105.0, 20.0 ],
					"numinlets" : 6,
					"numoutlets" : 1,
					"fontname" : "Arial"
				}

			}
, 			{
				"box" : 				{
					"maxclass" : "slider",
					"outlettype" : [ "" ],
					"id" : "obj-2",
					"patching_rect" : [ 420.0, 260.0, 20.0, 140.0 ],
					"numinlets" : 1,
					"numoutlets" : 1
				}

			}
, 			{
				"box" : 				{
					"maxclass" : "newobj",
					"text" : "newLFO",
					"outlettype" : [ "float" ],
					"id" : "obj-1",
					"fontsize" : 12.0,
					"patching_rect" : [ 460.0, 480.0, 59.5, 20.0 ],
					"numinlets" : 6,
					"numoutlets" : 1,
					"fontname" : "Arial"
				}

			}
, 			{
				"box" : 				{
					"maxclass" : "button",
					"outlettype" : [ "bang" ],
					"id" : "obj-6",
					"patching_rect" : [ 300.0, 480.0, 20.0, 20.0 ],
					"numinlets" : 1,
					"numoutlets" : 1
				}

			}
, 			{
				"box" : 				{
					"maxclass" : "bpatcher",
					"outlettype" : [ "" ],
					"id" : "obj-4",
					"presentation_rect" : [ 60.0, 520.0, 247.0, 169.0 ],
					"offset" : [ 2.0, 4.0 ],
					"name" : "numberController.maxpat",
					"patching_rect" : [ 60.0, 520.0, 248.0, 170.0 ],
					"presentation" : 1,
					"numinlets" : 2,
					"numoutlets" : 1,
					"args" : [  ]
				}

			}
 ],
		"lines" : [ 			{
				"patchline" : 				{
					"source" : [ "obj-1", 0 ],
					"destination" : [ "obj-4", 0 ],
					"hidden" : 0,
					"midpoints" : [ 469.5, 509.0, 355.0, 509.0, 344.0, 449.0, 69.5, 460.0 ]
				}

			}
, 			{
				"patchline" : 				{
					"source" : [ "obj-5", 0 ],
					"destination" : [ "obj-1", 1 ],
					"hidden" : 0,
					"midpoints" : [ 449.5, 401.0 ]
				}

			}
, 			{
				"patchline" : 				{
					"source" : [ "obj-3", 0 ],
					"destination" : [ "obj-1", 0 ],
					"hidden" : 0,
					"midpoints" : [ 349.5, 461.0, 469.5, 461.0 ]
				}

			}
, 			{
				"patchline" : 				{
					"source" : [ "obj-20", 0 ],
					"destination" : [ "obj-1", 4 ],
					"hidden" : 0,
					"midpoints" : [ 589.5, 446.0, 501.899994, 446.0 ]
				}

			}
, 			{
				"patchline" : 				{
					"source" : [ "obj-17", 0 ],
					"destination" : [ "obj-1", 4 ],
					"hidden" : 0,
					"midpoints" : [ 589.5, 286.0, 500.0, 286.0, 500.0, 441.0, 501.899994, 441.0 ]
				}

			}
, 			{
				"patchline" : 				{
					"source" : [ "obj-18", 0 ],
					"destination" : [ "obj-1", 4 ],
					"hidden" : 0,
					"midpoints" : [ 589.5, 327.0, 501.899994, 327.0 ]
				}

			}
, 			{
				"patchline" : 				{
					"source" : [ "obj-21", 0 ],
					"destination" : [ "obj-1", 4 ],
					"hidden" : 0,
					"midpoints" : [ 589.5, 245.0, 501.899994, 245.0 ]
				}

			}
, 			{
				"patchline" : 				{
					"source" : [ "obj-22", 0 ],
					"destination" : [ "obj-1", 4 ],
					"hidden" : 0,
					"midpoints" : [ 589.5, 203.0, 501.899994, 203.0 ]
				}

			}
, 			{
				"patchline" : 				{
					"source" : [ "obj-11", 0 ],
					"destination" : [ "obj-1", 5 ],
					"hidden" : 0,
					"midpoints" : [ 749.5, 434.0, 586.0, 470.0, 510.0, 470.0 ]
				}

			}
, 			{
				"patchline" : 				{
					"source" : [ "obj-13", 0 ],
					"destination" : [ "obj-1", 5 ],
					"hidden" : 0,
					"midpoints" : [ 889.5, 462.0, 510.0, 462.0 ]
				}

			}
, 			{
				"patchline" : 				{
					"source" : [ "obj-14", 0 ],
					"destination" : [ "obj-1", 5 ],
					"hidden" : 0,
					"midpoints" : [ 1010.5, 432.0, 510.0, 470.0 ]
				}

			}
, 			{
				"patchline" : 				{
					"source" : [ "obj-6", 0 ],
					"destination" : [ "obj-4", 1 ],
					"hidden" : 0,
					"midpoints" : [ 298.0, 503.0 ]
				}

			}
, 			{
				"patchline" : 				{
					"source" : [ "obj-4", 0 ],
					"destination" : [ "obj-7", 0 ],
					"hidden" : 0,
					"midpoints" : [  ]
				}

			}
, 			{
				"patchline" : 				{
					"source" : [ "obj-4", 0 ],
					"destination" : [ "obj-8", 1 ],
					"hidden" : 0,
					"midpoints" : [ 69.5, 705.0, 370.0, 705.0, 383.5, 705.0 ]
				}

			}
, 			{
				"patchline" : 				{
					"source" : [ "obj-2", 0 ],
					"destination" : [ "obj-3", 0 ],
					"hidden" : 0,
					"midpoints" : [  ]
				}

			}
 ]
	}

}
